<?xml version="1.0" encoding="utf-8"?>
<svg xmlns="http://www.w3.org/2000/svg" xmlns:xlink="http://www.w3.org/1999/xlink" version="1.1" style="width:0;height:0;position:absolute;overflow:hidden;">
  <defs>
<symbol viewBox="0 0 582 998" aria-labelledby="assi-awesome-angle-left-title" id="si-awesome-angle-left"><title id="assi-awesome-angle-left-title">icon angle-left</title><path d="M582 83q0 13-10 23L179 499l393 393q10 10 10 23t-10 23l-50 50q-10 10-23 10t-23-10L10 522Q0 512 0 499t10-23L476 10q10-10 23-10t23 10l50 50q10 10 10 23z"/></symbol>
<symbol viewBox="0 0 582 998" aria-labelledby="atsi-awesome-angle-right-title" id="si-awesome-angle-right"><title id="atsi-awesome-angle-right-title">icon angle-right</title><path d="M582 499q0 13-10 23L106 988q-10 10-23 10t-23-10l-50-50Q0 928 0 915t10-23l393-393L10 106Q0 96 0 83t10-23l50-50Q70 0 83 0t23 10l466 466q10 10 10 23z"/></symbol>
<symbol viewBox="0 0 1558 1472" aria-labelledby="bjsi-awesome-arrow-up-title" id="si-awesome-arrow-up"><title id="bjsi-awesome-arrow-up-title">icon arrow-up</title><path d="M1558 779q0 51-37 90l-75 75q-38 38-91 38-54 0-90-38L971 651v704q0 52-37.5 84.5T843 1472H715q-53 0-90.5-32.5T587 1355V651L293 944q-36 38-90 38t-90-38l-75-75Q0 831 0 779q0-53 38-91L689 37q35-37 90-37 54 0 91 37l651 651q37 39 37 91z"/></symbol>
<symbol viewBox="0 0 1676.3333740234375 1536" aria-labelledby="dasi-awesome-book-title" id="si-awesome-book"><title id="dasi-awesome-book-title">icon book</title><path d="M1643.667 350q40 57 18 129l-275 906q-19 64-76.5 107.5t-122.5 43.5h-923q-77 0-148.5-53.5t-99.5-131.5q-24-67-2-127 0-4 3-27t4-37q1-8-3-21.5t-3-19.5q2-11 8-21t16.5-23.5 16.5-23.5q23-38 45-91.5t30-91.5q3-10 .5-30t-.5-28q3-11 17-28t17-23q21-36 42-92t25-90q1-9-2.5-32t.5-28q4-13 22-30.5t22-22.5q19-26 42.5-84.5t27.5-96.5q1-8-3-25.5t-2-26.5q2-8 9-18t18-23 17-21q8-12 16.5-30.5t15-35 16-36 19.5-32 26.5-23.5 36-11.5 47.5 5.5l-1 3q38-9 51-9h761q74 0 114 56t18 130l-274 906q-36 119-71.5 153.5t-128.5 34.5h-869q-27 0-38 15-11 16-1 43 24 70 144 70h923q29 0 56-15.5t35-41.5l300-987q7-22 5-57 38 15 59 43zm-1064 2q-4 13 2 22.5t20 9.5h608q13 0 25.5-9.5t16.5-22.5l21-64q4-13-2-22.5t-20-9.5h-608q-13 0-25.5 9.5t-16.5 22.5zm-83 256q-4 13 2 22.5t20 9.5h608q13 0 25.5-9.5t16.5-22.5l21-64q4-13-2-22.5t-20-9.5h-608q-13 0-25.5 9.5t-16.5 22.5z"/></symbol>
<symbol viewBox="0 0 1664 1792" aria-labelledby="dosi-awesome-calendar-title" id="si-awesome-calendar"><title id="dosi-awesome-calendar-title">icon calendar</title><path d="M128 1664h288v-288H128v288zm352 0h320v-288H480v288zm-352-352h288V992H128v320zm352 0h320V992H480v320zM128 928h288V640H128v288zm736 736h320v-288H864v288zM480 928h320V640H480v288zm768 736h288v-288h-288v288zm-384-352h320V992H864v320zM512 448V160q0-13-9.5-22.5T480 128h-64q-13 0-22.5 9.5T384 160v288q0 13 9.5 22.5T416 480h64q13 0 22.5-9.5T512 448zm736 864h288V992h-288v320zM864 928h320V640H864v288zm384 0h288V640h-288v288zm32-480V160q0-13-9.5-22.5T1248 128h-64q-13 0-22.5 9.5T1152 160v288q0 13 9.5 22.5t22.5 9.5h64q13 0 22.5-9.5t9.5-22.5zm384-64v1280q0 52-38 90t-90 38H128q-52 0-90-38t-38-90V384q0-52 38-90t90-38h128v-96q0-66 47-113T416 0h64q66 0 113 47t47 113v96h384v-96q0-66 47-113t113-47h64q66 0 113 47t47 113v96h128q52 0 90 38t38 90z"/></symbol>
<symbol viewBox="0 0 1536 1536" aria-labelledby="fmsi-awesome-clock-o-title" id="si-awesome-clock-o"><title id="fmsi-awesome-clock-o-title">icon clock-o</title><path d="M896 416v448q0 14-9 23t-23 9H544q-14 0-23-9t-9-23v-64q0-14 9-23t23-9h224V416q0-14 9-23t23-9h64q14 0 23 9t9 23zm416 352q0-148-73-273t-198-198-273-73-273 73-198 198-73 273 73 273 198 198 273 73 273-73 198-198 73-273zm224 0q0 209-103 385.5T1153.5 1433 768 1536t-385.5-103T103 1153.5 0 768t103-385.5T382.5 103 768 0t385.5 103T1433 382.5 1536 768z"/></symbol>
<symbol viewBox="0 0 1830 1375.3333740234375" aria-labelledby="ftsi-awesome-code-title" id="si-awesome-code"><title id="ftsi-awesome-code-title">icon code</title><path d="M572 1126.667l-50 50q-10 10-23 10t-23-10l-466-466q-10-10-10-23t10-23l466-466q10-10 23-10t23 10l50 50q10 10 10 23t-10 23l-393 393 393 393q10 10 10 23t-10 23zm591-1067l-373 1291q-4 13-15.5 19.5t-23.5 2.5l-62-17q-13-4-19.5-15.5t-2.5-24.5l373-1291q4-13 15.5-19.5t23.5-2.5l62 17q13 4 19.5 15.5t2.5 24.5zm657 651l-466 466q-10 10-23 10t-23-10l-50-50q-10-10-10-23t10-23l393-393-393-393q-10-10-10-23t10-23l50-50q10-10 23-10t23 10l466 466q10 10 10 23t-10 23z"/></symbol>
<symbol viewBox="0 0 1856 1408" aria-labelledby="fxsi-awesome-coffee-title" id="si-awesome-coffee"><title id="fxsi-awesome-coffee-title">icon coffee</title><path d="M1664 384q0-80-56-136t-136-56h-64v384h64q80 0 136-56t56-136zM0 1152h1792q0 106-75 181t-181 75H256q-106 0-181-75T0 1152zm1856-768q0 159-112.5 271.5T1472 768h-64v32q0 92-66 158t-158 66H480q-92 0-158-66t-66-158V64q0-26 19-45t45-19h1152q159 0 271.5 112.5T1856 384z"/></symbol>
<symbol viewBox="0 0 1792 1408.666748046875" aria-labelledby="gfsi-awesome-comments-title" id="si-awesome-comments"><title id="gfsi-awesome-comments-title">icon comments</title><path d="M1408 512q0 139-94 257t-256.5 186.5T704 1024q-86 0-176-16-124 88-278 128-36 9-86 16h-3q-11 0-20.5-8t-11.5-21q-1-3-1-6.5t.5-6.5 2-6l2.5-5 3.5-5.5 4-5 4.5-5 4-4.5q5-6 23-25t26-29.5 22.5-29 25-38.5 20.5-44Q142 841 71 736T0 512q0-139 94-257T350.5 68.5 704 0t353.5 68.5T1314 255t94 257zm384 256q0 120-71 224.5T1526 1169q10 24 20.5 44t25 38.5 22.5 29 26 29.5 23 25q1 1 4 4.5t4.5 5 4 5 3.5 5.5l2.5 5 2 6 .5 6.5-1 6.5q-3 14-13 22t-22 7q-50-7-86-16-154-40-278-128-90 16-176 16-271 0-472-132 58 4 88 4 161 0 309-45t264-129q125-92 192-212t67-254q0-77-23-152 129 71 204 178t75 230z"/></symbol>
<symbol viewBox="0 0 1920 1536" aria-labelledby="gosi-awesome-credit-card-title" id="si-awesome-credit-card"><title id="gosi-awesome-credit-card-title">icon credit-card</title><path d="M1760 0q66 0 113 47t47 113v1216q0 66-47 113t-113 47H160q-66 0-113-47T0 1376V160Q0 94 47 47T160 0h1600zM160 128q-13 0-22.5 9.5T128 160v224h1664V160q0-13-9.5-22.5T1760 128H160zm1600 1280q13 0 22.5-9.5t9.5-22.5V768H128v608q0 13 9.5 22.5t22.5 9.5h1600zM256 1280v-128h256v128H256zm384 0v-128h384v128H640z"/></symbol>
<symbol viewBox="0 0 1664 1664" aria-labelledby="gtsi-awesome-cube-title" id="si-awesome-cube"><title id="gtsi-awesome-cube-title">icon cube</title><path d="M896 1501l640-349V516L896 749v752zm-64-865l698-254-698-254-698 254zm832-252v768q0 35-18 65t-49 47l-704 384q-28 16-61 16t-61-16L67 1264q-31-17-49-47t-18-65V384q0-40 23-73t61-47L788 8q22-8 44-8t44 8l704 256q38 14 61 47t23 73z"/></symbol>
<symbol viewBox="0 0 2176 1792" aria-labelledby="gusi-awesome-cubes-title" id="si-awesome-cubes"><title id="gusi-awesome-cubes-title">icon cubes</title><path d="M640 1632l384-192v-314l-384 164v342zm-64-454l404-173-404-173-404 173zm1088 454l384-192v-314l-384 164v342zm-64-454l404-173-404-173-404 173zm-448-293l384-165V454l-384 164v267zm-64-379l441-189-441-189-441 189zm1088 518v416q0 36-19 67t-52 47l-448 224q-25 14-57 14t-57-14l-448-224q-5-2-7-4-2 2-7 4l-448 224q-25 14-57 14t-57-14L71 1554q-33-16-52-47t-19-67v-416q0-38 21.5-70T78 906l434-186V320q0-38 21.5-70t56.5-48l448-192q23-10 50-10t50 10l448 192q35 16 56.5 48t21.5 70v400l434 186q36 16 57 48t21 70z"/></symbol>
<symbol viewBox="0 0 1792 1408" aria-labelledby="husi-awesome-envelope-o-title" id="si-awesome-envelope-o"><title id="husi-awesome-envelope-o-title">icon envelope-o</title><path d="M1664 1248V480q-32 36-69 66-268 206-426 338-51 43-83 67t-86.5 48.5T897 1024h-2q-48 0-102.5-24.5T706 951t-83-67Q465 752 197 546q-37-30-69-66v768q0 13 9.5 22.5t22.5 9.5h1472q13 0 22.5-9.5t9.5-22.5zm0-1051v-24.5l-.5-13-3-12.5-5.5-9-9-7.5-14-2.5H160q-13 0-22.5 9.5T128 160q0 168 147 284 193 152 401 317 6 5 35 29.5t46 37.5 44.5 31.5T852 887t43 9h2q20 0 43-9t50.5-27.5T1035 828t46-37.5 35-29.5q208-165 401-317 54-43 100.5-115.5T1664 197zm128-37v1088q0 66-47 113t-113 47H160q-66 0-113-47T0 1248V160Q0 94 47 47T160 0h1472q66 0 113 47t47 113z"/></symbol>
<symbol viewBox="0 0 1792 1536" aria-labelledby="ifsi-awesome-external-link-title" id="si-awesome-external-link"><title id="ifsi-awesome-external-link-title">icon external-link</title><path d="M1408 928v320q0 119-84.5 203.5T1120 1536H288q-119 0-203.5-84.5T0 1248V416q0-119 84.5-203.5T288 128h704q14 0 23 9t9 23v64q0 14-9 23t-23 9H288q-66 0-113 47t-47 113v832q0 66 47 113t113 47h832q66 0 113-47t47-113V928q0-14 9-23t23-9h64q14 0 23 9t9 23zm384-864v512q0 26-19 45t-45 19-45-19l-176-176-652 652q-10 10-23 10t-23-10L695 983q-10-10-10-23t10-23l652-652-176-176q-19-19-19-45t19-45 45-19h512q26 0 45 19t19 45z"/></symbol>
<symbol viewBox="0 0 1792 1152" aria-labelledby="ihsi-awesome-eye-title" id="si-awesome-eye"><title id="ihsi-awesome-eye-title">icon eye</title><path d="M1664 576q-152-236-381-353 61 104 61 225 0 185-131.5 316.5T896 896 579.5 764.5 448 448q0-121 61-225-229 117-381 353 133 205 333.5 326.5T896 1024t434.5-121.5T1664 576zM944 192q0-20-14-34t-34-14q-125 0-214.5 89.5T592 448q0 20 14 34t34 14 34-14 14-34q0-86 61-147t147-61q20 0 34-14t14-34zm848 384q0 34-20 69-140 230-376.5 368.5T896 1152t-499.5-139T20 645Q0 610 0 576t20-69q140-229 376.5-368T896 0t499.5 139T1772 507q20 35 20 69z"/></symbol>
<symbol viewBox="0 0 1479 1536" aria-labelledby="jqsi-awesome-flask-title" id="si-awesome-flask"><title id="jqsi-awesome-flask-title">icon flask</title><path d="M1434.5 1320q56 89 21.5 152.5t-140.5 63.5h-1152q-106 0-140.5-63.5T44.5 1320l503-793V128h-64q-26 0-45-19t-19-45 19-45 45-19h512q26 0 45 19t19 45-19 45-45 19h-64v399zm-779-725l-272 429h712l-272-429-20-31V128h-128v436z"/></symbol>
<symbol viewBox="0 0 1879 1408" aria-labelledby="jvsi-awesome-folder-open-title" id="si-awesome-folder-open"><title id="jvsi-awesome-folder-open-title">icon folder-open</title><path d="M1879 824q0 31-31 66l-336 396q-43 51-120.5 86.5T1248 1408H160q-34 0-60.5-13T73 1352q0-31 31-66l336-396q43-51 120.5-86.5T704 768h1088q34 0 60.5 13t26.5 43zm-343-344v160H704q-94 0-197 47.5T343 807L6 1203l-5 6q0-4-.5-12.5T0 1184V224q0-92 66-158T224 0h320q92 0 158 66t66 158v32h544q92 0 158 66t66 158z"/></symbol>
<symbol viewBox="0 0 1613.3333740234375 1283" aria-labelledby="masi-awesome-home-title" id="si-awesome-home"><title id="masi-awesome-home-title">icon home</title><path d="M1382.667 739v480q0 26-19 45t-45 19h-384V899h-256v384h-384q-26 0-45-19t-19-45V739q0-1 .5-3t.5-3l575-474 575 474q1 2 1 6zm223-69l-62 74q-8 9-21 11h-3q-13 0-21-7l-692-577-692 577q-12 8-24 7-13-2-21-11l-62-74q-8-10-7-23.5t11-21.5l719-599q32-26 76-26t76 26l244 204V35q0-14 9-23t23-9h192q14 0 23 9t9 23v408l219 182q10 8 11 21.5t-7 23.5z"/></symbol>
<symbol viewBox="0 0 1408 1600" aria-labelledby="misi-awesome-html5-title" id="si-awesome-html5"><title id="misi-awesome-html5-title">icon html5</title><path d="M1130 469l16-175H262l47 534h612l-22 228-197 53-196-53-13-140H318l22 278 362 100h4v-1l359-99 50-544H471l-15-181h674zM0 0h1408l-128 1438-578 162-574-162z"/></symbol>
<symbol viewBox="0 0 1792 1792" aria-labelledby="nlsi-awesome-life-bouy-title" id="si-awesome-life-bouy"><title id="nlsi-awesome-life-bouy-title">icon life-bouy</title><path d="M896 0q182 0 348 71t286 191 191 286 71 348-71 348-191 286-286 191-348 71-348-71-286-191-191-286T0 896t71-348 191-286T548 71 896 0zm0 128q-190 0-361 90l194 194q82-28 167-28t167 28l194-194q-171-90-361-90zM218 1257l194-194q-28-82-28-167t28-167L218 535q-90 171-90 361t90 361zm678 407q190 0 361-90l-194-194q-82 28-167 28t-167-28l-194 194q171 90 361 90zm0-384q159 0 271.5-112.5T1280 896t-112.5-271.5T896 512 624.5 624.5 512 896t112.5 271.5T896 1280zm484-217l194 194q90-171 90-361t-90-361l-194 194q28 82 28 167t-28 167z"/></symbol>
<symbol viewBox="0 0 1024 1536" aria-labelledby="nmsi-awesome-lightbulb-o-title" id="si-awesome-lightbulb-o"><title id="nmsi-awesome-lightbulb-o-title">icon lightbulb-o</title><path d="M736 448q0 13-9.5 22.5T704 480t-22.5-9.5T672 448q0-46-54-71t-106-25q-13 0-22.5-9.5T480 320t9.5-22.5T512 288q50 0 99.5 16t87 54 37.5 90zm160 0q0-72-34.5-134t-90-101.5-123-62T512 128t-136.5 22.5-123 62-90 101.5T128 448q0 101 68 180 10 11 30.5 33t30.5 33q128 153 141 298h228q13-145 141-298 10-11 30.5-33t30.5-33q68-79 68-180zm128 0q0 155-103 268-45 49-74.5 87T787 898.5 753 1006q47 28 47 82 0 37-25 64 25 27 25 64 0 52-45 81 13 23 13 47 0 46-31.5 71t-77.5 25q-20 44-60 70t-87 26-87-26-60-70q-46 0-77.5-25t-31.5-71q0-24 13-47-45-29-45-81 0-37 25-64-25-27-25-64 0-54 47-82-4-50-34-107.5T177.5 803 103 716Q0 603 0 448q0-99 44.5-184.5t117-142 164-89T512 0t186.5 32.5 164 89 117 142T1024 448z"/></symbol>
<symbol viewBox="0 0 1792 1408" aria-labelledby="nusi-awesome-list-ul-title" id="si-awesome-list-ul"><title id="nusi-awesome-list-ul-title">icon list-ul</title><path d="M384 1216q0 80-56 136t-136 56-136-56-56-136 56-136 136-56 136 56 56 136zm0-512q0 80-56 136t-136 56-136-56T0 704t56-136 136-56 136 56 56 136zm1408 416v192q0 13-9.5 22.5t-22.5 9.5H544q-13 0-22.5-9.5T512 1312v-192q0-13 9.5-22.5t22.5-9.5h1216q13 0 22.5 9.5t9.5 22.5zM384 192q0 80-56 136t-136 56-136-56T0 192 56 56 192 0t136 56 56 136zm1408 416v192q0 13-9.5 22.5T1760 832H544q-13 0-22.5-9.5T512 800V608q0-13 9.5-22.5T544 576h1216q13 0 22.5 9.5t9.5 22.5zm0-512v192q0 13-9.5 22.5T1760 320H544q-13 0-22.5-9.5T512 288V96q0-13 9.5-22.5T544 64h1216q13 0 22.5 9.5T1792 96z"/></symbol>
<symbol viewBox="0 0 1756 1792" aria-labelledby="rgsi-awesome-qq-title" id="si-awesome-qq"><title id="rgsi-awesome-qq-title">icon qq</title><path d="M252 806q-8-19-8-52 0-20 11-49t24-45q-1-22 7.5-53t22.5-43q0-139 92.5-288.5T619 66Q758 0 943 0q133 0 266 55 49 21 90 48t71 56 55 68 42 74 32.5 84.5T1525 475t22 98l1 5q55 83 55 150 0 14-9 40t-9 38q0 1 1.5 3.5t3.5 5 2 3.5q77 114 120.5 214.5T1756 1241q0 43-19.5 100t-55.5 57q-9 0-19.5-7.5t-19-17.5-19-26-16-26.5-13.5-26-9-17.5q-1-1-3-1l-5 4q-59 154-132 223 20 20 61.5 38.5t69 41.5 35.5 65q-2 4-4 16t-7 18q-64 97-302 97-53 0-110.5-9t-98-20-104.5-30q-15-5-23-7-14-4-46-4.5t-40-1.5q-41 45-127.5 65T580 1792q-35 0-69-1.5t-93-9-101-20.5-74.5-40-32.5-64q0-40 10-59.5t41-48.5q11-2 40.5-13t49.5-12q4 0 14-2 2-2 2-4l-2-3q-48-11-108-105.5T184 1253l-5-3q-4 0-12 20-18 41-54.5 74.5T35 1382h-1q-4 0-6-4.5t-5-5.5q-23-54-23-100 0-275 252-466z"/></symbol>
<symbol viewBox="0 0 1664 1664" aria-labelledby="sfsi-awesome-search-title" id="si-awesome-search"><title id="sfsi-awesome-search-title">icon search</title><path d="M1152 704q0-185-131.5-316.5T704 256 387.5 387.5 256 704t131.5 316.5T704 1152t316.5-131.5T1152 704zm512 832q0 52-38 90t-90 38q-54 0-90-38l-343-342q-179 124-399 124-143 0-273.5-55.5t-225-150-150-225T0 704t55.5-273.5 150-225 225-150T704 0t273.5 55.5 225 150 150 225T1408 704q0 220-124 399l343 343q37 37 37 90z"/></symbol>
<symbol viewBox="0 0 1664 1587" aria-labelledby="uesi-awesome-star-o-title" id="si-awesome-star-o"><title id="uesi-awesome-star-o-title">icon star-o</title><path d="M1137 972l306-297-422-62-189-382-189 382-422 62 306 297-73 421 378-199 377 199zm527-357q0 22-26 48l-363 354 86 500q1 7 1 20 0 50-41 50-19 0-40-12l-449-236-449 236q-22 12-40 12-21 0-31.5-14.5T301 1537q0-6 2-20l86-500L25 663Q0 636 0 615q0-37 56-46l502-73L783 41q19-41 49-41t49 41l225 455 502 73q56 9 56 46z"/></symbol>
<symbol viewBox="0 0 1152 1408" aria-labelledby="uzsi-awesome-tablet-title" id="si-awesome-tablet"><title id="uzsi-awesome-tablet-title">icon tablet</title><path d="M640 1280q0-26-19-45t-45-19-45 19-19 45 19 45 45 19 45-19 19-45zm384-160V160q0-13-9.5-22.5T992 128H160q-13 0-22.5 9.5T128 160v960q0 13 9.5 22.5t22.5 9.5h832q13 0 22.5-9.5t9.5-22.5zm128-960v1088q0 66-47 113t-113 47H160q-66 0-113-47T0 1248V160Q0 94 47 47T160 0h832q66 0 113 47t47 113z"/></symbol>
<symbol viewBox="0 0 1651 1075" aria-labelledby="vfsi-awesome-terminal-title" id="si-awesome-terminal"><title id="vfsi-awesome-terminal-title">icon terminal</title><path d="M572 522L106 988q-10 10-23 10t-23-10l-50-50Q0 928 0 915t10-23l393-393L10 106Q0 96 0 83t10-23l50-50Q70 0 83 0t23 10l466 466q10 10 10 23t-10 23zm1079 457v64q0 14-9 23t-23 9H659q-14 0-23-9t-9-23v-64q0-14 9-23t23-9h960q14 0 23 9t9 23z"/></symbol>
<symbol viewBox="0 0 1536 1664" aria-labelledby="vosi-awesome-thumbs-o-down-title" id="si-awesome-thumbs-o-down"><title id="vosi-awesome-thumbs-o-down-title">icon thumbs-o-down</title><path d="M256 320q0-26-19-45t-45-19-45 19-19 45 19 45 45 19 45-19 19-45zm1152 576q0-35-21.5-81t-53.5-47q15-17 25-47.5t10-55.5q0-69-53-119 18-32 18-69t-17.5-73.5T1268 351q5-30 5-56 0-85-49-126t-136-41H960q-131 0-342 73-5 2-29 10.5T553.5 224t-35 11.5-38 11-33 6.5-31.5 3h-32v640h32q16 0 35.5 9t40 27 38.5 35.5 40 44 34.5 42.5 31.5 41 23 30q55 68 77 91 41 43 59.5 109.5T826 1451t38 85q96 0 128-47t32-145q0-59-48-160.5T928 1024h352q50 0 89-38.5t39-89.5zm128 1q0 103-76 179t-180 76h-176q48 99 48 192 0 118-35 186-35 69-102 101.5T864 1664q-51 0-90-37-34-33-54-82t-25.5-90.5T677 1370t-31-64q-48-50-107-127-101-131-137-155H128q-53 0-90.5-37.5T0 896V256q0-53 37.5-90.5T128 128h288q22 0 138-40 128-44 223-66T977 0h112q140 0 226.5 79t85.5 216v5q60 77 60 178 0 22-3 43 38 67 38 144 0 36-9 69 49 74 49 163z"/></symbol>
<symbol viewBox="0 0 1536 1664" aria-labelledby="vpsi-awesome-thumbs-o-up-title" id="si-awesome-thumbs-o-up"><title id="vpsi-awesome-thumbs-o-up-title">icon thumbs-o-up</title><path d="M256 1344q0-26-19-45t-45-19-45 19-19 45 19 45 45 19 45-19 19-45zm1152-576q0-51-39-89.5t-89-38.5H928q0-58 48-159.5t48-160.5q0-98-32-145t-128-47q-26 26-38 85t-30.5 125.5T736 448q-22 23-77 91-4 5-23 30t-31.5 41-34.5 42.5-40 44-38.5 35.5-40 27-35.5 9h-32v640h32q13 0 31.5 3t33 6.5 38 11 35 11.5 35.5 12.5 29 10.5q211 73 342 73h121q192 0 192-167 0-26-5-56 30-16 47.5-52.5t17.5-73.5-18-69q53-50 53-119 0-25-10-55.5t-25-47.5q32-1 53.5-47t21.5-81zm128-1q0 89-49 163 9 33 9 69 0 77-38 144 3 21 3 43 0 101-60 178 1 139-85 219.5t-227 80.5H960q-96 0-189.5-22.5T554 1576q-116-40-138-40H128q-53 0-90.5-37.5T0 1408V768q0-53 37.5-90.5T128 640h274q36-24 137-155 58-75 107-128 24-25 35.5-85.5T712 145t62-108q39-37 90-37 84 0 151 32.5T1117 134t35 186q0 93-48 192h176q104 0 180 76t76 179z"/></symbol>
<symbol viewBox="0 0 1408 1536" aria-labelledby="wvsi-awesome-user-title" id="si-awesome-user"><title id="wvsi-awesome-user-title">icon user</title><path d="M1408 1277q0 120-73 189.5t-194 69.5H267q-121 0-194-69.5T0 1277q0-53 3.5-103.5t14-109T44 956t43-97.5 62-81 85.5-53.5T346 704q9 0 42 21.5t74.5 48 108 48T704 843t133.5-21.5 108-48 74.5-48 42-21.5q61 0 111.5 20t85.5 53.5 62 81 43 97.5 26.5 108.5 14 109 3.5 103.5zm-320-893q0 159-112.5 271.5T704 768 432.5 655.5 320 384t112.5-271.5T704 0t271.5 112.5T1088 384z"/></symbol>
<symbol viewBox="0 0 1664 1664" aria-labelledby="xwsi-awesome-windows-title" id="si-awesome-windows"><title id="xwsi-awesome-windows-title">icon windows</title><path d="M682 878v651L0 1435V878h682zm0-743v659H0V229zm982 743v786l-907-125V878h907zm0-878v794H757V125z"/></symbol>
  </defs>
</svg>
